<?xml version="1.0" encoding="utf-8"?>
<!-- Generator: Adobe Illustrator 24.1.2, SVG Export Plug-In . SVG Version: 6.00 Build 0)  -->
<svg version="1.1" id="Слой_1" xmlns="http://www.w3.org/2000/svg" xmlns:xlink="http://www.w3.org/1999/xlink" x="0px" y="0px"
	 viewBox="0 0 1366 768" style="enable-background:new 0 0 1366 768;" xml:space="preserve">
<style type="text/css">
	.st0{fill:#2F3234;}
	.st1{fill:none;}
	.st2{fill:url(#SVGID_1_);}
	.st3{fill:url(#SVGID_2_);}
	.st4{clip-path:url(#SVGID_4_);fill:url(#SVGID_5_);}
	.st5{clip-path:url(#SVGID_4_);fill:url(#SVGID_6_);}
</style>
<g>
	<g>
		<g>
			<g>
				<path class="st0" d="M633.51,309.39v20.74l-88.12,0V218.47l86,0v20.74l-59.83,0v24.25l52.84,0v20.1l-52.84,0v25.84
					L633.51,309.39z"/>
				<path class="st0" d="M705.53,330.13l-19.19-26.32l-19.83,26.32h-27.64l33.65-43.23l-32.52-42.59l28.45,0l18.53,25.04
					l19.02-25.04l26.99,0l-32.51,41.95l33.82,43.87H705.53z"/>
				<path class="st0" d="M735.76,287.22c0-25.84,20.32-44.19,48.77-44.19c18.37,0,32.84,7.81,39.18,21.85l-19.67,10.37
					c-4.71-8.13-11.71-11.8-19.67-11.8c-12.84,0-22.92,8.77-22.92,23.77c0,14.99,10.08,23.77,22.92,23.77
					c7.97,0,14.96-3.51,19.67-11.8l19.67,10.53c-6.34,13.72-20.81,21.69-39.18,21.69C756.08,331.41,735.76,313.06,735.76,287.22z"/>
				<path class="st0" d="M925.49,281v49.13h-25.36v-45.3c0-13.88-6.5-20.26-17.72-20.26c-12.19,0-20.97,7.34-20.97,23.13v42.43
					h-25.36l0-118.36l25.36,0v41.47c6.83-6.7,16.58-10.21,27.8-10.21C909.88,243.04,925.49,254.84,925.49,281z"/>
				<path class="st0" d="M1024.17,281.16v48.97h-23.74v-10.69c-4.71,7.82-13.82,11.96-26.66,11.96c-20.49,0-32.68-11.17-32.68-26
					c0-15.15,10.89-25.68,37.56-25.68l20.16,0c0-10.69-6.5-16.91-20.16-16.91c-9.27,0-18.86,3.03-25.2,7.98l-9.1-17.39
					c9.59-6.7,23.74-10.37,37.72-10.37C1008.72,243.04,1024.17,255.16,1024.17,281.16z M998.81,303.01v-8.77l-17.4,0
					c-11.87,0-15.61,4.31-15.61,10.05c0,6.22,5.37,10.37,14.31,10.37C988.56,314.66,995.88,310.83,998.81,303.01z"/>
				<path class="st0" d="M1134.88,281v49.13h-25.36v-45.3c0-13.88-6.5-20.26-17.72-20.26c-12.19,0-20.97,7.34-20.97,23.13v42.43
					h-25.36v-85.82h24.22v10.05c6.83-7.34,17.07-11.33,28.94-11.33C1119.27,243.04,1134.88,254.84,1134.88,281z"/>
				<path class="st0" d="M1247.38,244.31v71.46c0,31.9-17.56,46.58-49.1,46.58c-16.58,0-32.68-3.99-42.92-11.8l10.08-17.87
					c7.48,5.9,19.67,9.73,30.89,9.73c17.88,0,25.69-7.98,25.69-23.45v-3.67c-6.67,7.18-16.26,10.69-27.64,10.69
					c-24.22,0-43.73-16.43-43.73-41.47c0-25.04,19.51-41.47,43.73-41.47c12.19,0,22.27,3.99,28.94,12.28v-11.01L1247.38,244.31z
					 M1222.34,284.51c0-12.6-9.59-21.05-22.92-21.05c-13.33,0-23.09,8.45-23.09,21.05c0,12.6,9.75,21.06,23.09,21.06
					S1222.34,297.11,1222.34,284.51z"/>
				<path class="st0" d="M1354.51,294.24l-66.17,0c2.44,10.69,11.7,17.23,25.04,17.23c9.27,0,15.93-2.71,21.95-8.29l13.49,14.36
					c-8.13,9.09-20.32,13.88-36.09,13.88c-30.24,0-49.91-18.66-49.91-44.19c0-25.68,20-44.19,46.66-44.19
					c25.69,0,45.52,16.91,45.52,44.51C1355,289.45,1354.67,292.17,1354.51,294.24z M1288.02,279.72l43.08,0
					c-1.79-10.85-10.08-17.87-21.46-17.87C1298.1,261.86,1289.81,268.72,1288.02,279.72z"/>
			</g>
		</g>
		<g>
			<g>
				<g>
					<g>
						<path class="st0" d="M539.35,444.53c0-34.22,26.77-58.26,63.27-58.26c21.67,0,38.87,7.57,50.09,21.23
							c0.48,0.59,0.4,1.45-0.17,1.96l-22.02,19.29c-0.61,0.54-1.55,0.45-2.08-0.17c-6.46-7.57-14.13-11.9-23.87-11.9
							c-15.9,0-26.61,10.82-26.61,27.86c0,17.03,10.71,27.86,26.61,27.86c9.74,0,17.41-4.33,23.87-11.9
							c0.53-0.62,1.47-0.7,2.08-0.17l22.02,19.29c0.57,0.5,0.66,1.37,0.17,1.96c-11.22,13.66-28.42,21.23-50.09,21.23
							C566.12,502.79,539.35,478.75,539.35,444.53z"/>
					</g>
				</g>
				<g>
					<g>
						<path class="st0" d="M742.46,480.82l-43.15,0l-7.27,18.51c-0.22,0.55-0.75,0.91-1.35,0.91l-35.73,0
							c-1.04,0-1.75-1.05-1.33-1.99L702,389.67c0.23-0.52,0.75-0.85,1.33-0.85l35.74,0c0.58,0,1.1,0.33,1.33,0.85l48.38,108.58
							c0.42,0.94-0.28,1.99-1.33,1.99l-36.38,0c-0.6,0-1.14-0.36-1.35-0.91L742.46,480.82z M731.91,453.76l-11.03-28.02
							l-11.03,28.02H731.91z"/>
					</g>
				</g>
				<g>
					<g>
						<path class="st0" d="M792.27,490.17l11.81-26.22c10.71,6.21,24.98,10.19,37.48,10.19c10.87,0,14.76-2.23,14.76-6.05
							c0-14.01-62.79-2.71-62.79-44.25c0-20.69,17.68-37.57,52.89-37.57c14.76,0,29.98,2.98,41.68,9.09
							c0.66,0.34,0.93,1.13,0.65,1.81l-10.42,24.63c-0.32,0.76-1.23,1.08-1.98,0.72c-10.68-5.11-20.76-7.6-30.25-7.6
							c-11.19,0-14.76,3.18-14.76,7c0,13.37,62.78,2.23,62.78,43.3c0,20.37-17.68,37.57-52.89,37.57
							c-18.38,0-36.91-4.33-48.38-10.82C792.21,491.61,791.97,490.83,792.27,490.17z"/>
					</g>
				</g>
				<g>
					<g>
						<path class="st0" d="M1018.07,390.24v108.58c0,0.78-0.65,1.42-1.45,1.42h-35.39c-0.8,0-1.45-0.64-1.45-1.42v-39.65h-35.37
							v39.65c0,0.78-0.65,1.42-1.45,1.42h-35.39c-0.8,0-1.45-0.64-1.45-1.42l0-108.58c0-0.78,0.65-1.42,1.45-1.42l35.39,0
							c0.8,0,1.45,0.64,1.45,1.42v38.06h35.37v-38.06c0-0.78,0.65-1.42,1.45-1.42h35.39
							C1017.42,388.82,1018.07,389.46,1018.07,390.24z"/>
					</g>
				</g>
				<g>
					<g>
						<path class="st0" d="M1032.18,481.14c0-12.26,9.25-20.37,21.41-20.37c12.17,0,21.42,8.12,21.42,20.37
							c0,12.1-9.25,20.69-21.42,20.69C1041.43,501.83,1032.18,493.24,1032.18,481.14z"/>
					</g>
				</g>
			</g>
		</g>
		<ellipse class="st1" cx="232.68" cy="359.42" rx="221.6" ry="217.42"/>
	</g>
	<g>
		<path class="st0" d="M344.46,382.67v-46.5c0-3.26,2.69-5.9,6.01-5.9l78.49,0c12.63,0,21.76-11.68,18.69-23.71
			c-23.76-93.33-108.99-162.78-211.05-164.53c-122.08-2.09-223.81,94.5-225.52,214.28c-1.73,121.5,98.14,220.52,221.57,220.52
			c103.82,0,190.95-70.05,215-164.61c3.05-12.01-6.1-23.66-18.71-23.66l-78.49,0C347.15,388.57,344.46,385.93,344.46,382.67z"/>
		<linearGradient id="SVGID_1_" gradientUnits="userSpaceOnUse" x1="91.547" y1="500.0306" x2="191.3343" y2="391.4657">
			<stop  offset="0" style="stop-color:#2F3234"/>
			<stop  offset="1" style="stop-color:#121415"/>
		</linearGradient>
		<path class="st2" d="M232.68,475.85c-65.54,0-118.66-52.13-118.66-116.43c0-30.77,12.19-58.73,32.05-79.55L14.62,398.3
			c15.25,82.9,78.41,149.45,160.34,171.08l135.43-122.01C289.57,465.09,262.41,475.85,232.68,475.85z"/>
		<linearGradient id="SVGID_2_" gradientUnits="userSpaceOnUse" x1="114.0146" y1="359.4197" x2="344.2738" y2="359.4197">
			<stop  offset="1.350134e-03" style="stop-color:#FFFFFF"/>
			<stop  offset="1" style="stop-color:#FFFFFF"/>
		</linearGradient>
		<path class="st3" d="M336.68,390.37l-70.43,0c-3.43,0-6.2,2.72-6.2,6.08v23.82c0,10.05-12.18,15.3-19.72,8.5l-65.84-59.31
			c-6-5.4-6-14.68,0-20.09l65.84-59.31c7.54-6.8,19.72-1.55,19.72,8.5v23.82c0,3.36,2.78,6.08,6.2,6.08l70.44,0
			c5.21,0,8.95-5.1,7.12-9.89c-17.53-45.9-63.73-78.06-117.22-75.43c-61.77,3.03-111.43,53.47-112.54,114.13
			c-1.2,65.28,52.38,118.57,118.64,118.57c50.89,0,94.27-31.44,111.13-75.6C345.63,395.46,341.88,390.37,336.68,390.37z"/>
		<g>
			<defs>
				<path id="SVGID_3_" d="M336.68,390.37l-70.43,0c-3.43,0-6.2,2.72-6.2,6.08v23.82c0,10.05-12.18,15.3-19.72,8.5l-65.84-59.31
					c-6-5.4-6-14.68,0-20.09l65.84-59.31c7.54-6.8,19.72-1.55,19.72,8.5v23.82c0,3.36,2.78,6.08,6.2,6.08l70.44,0
					c5.21,0,8.95-5.1,7.12-9.89c-17.53-45.9-63.73-78.06-117.22-75.43c-61.77,3.03-111.43,53.47-112.54,114.13
					c-1.2,65.28,52.38,118.57,118.64,118.57c50.89,0,94.27-31.44,111.13-75.6C345.63,395.46,341.88,390.37,336.68,390.37z"/>
			</defs>
			<clipPath id="SVGID_4_">
				<use xlink:href="#SVGID_3_"  style="overflow:visible;"/>
			</clipPath>
			<linearGradient id="SVGID_5_" gradientUnits="userSpaceOnUse" x1="162.7246" y1="341.5707" x2="262.6804" y2="433.5806">
				<stop  offset="0" style="stop-color:#2F3234;stop-opacity:0.65"/>
				<stop  offset="1" style="stop-color:#FFFFFF;stop-opacity:0"/>
			</linearGradient>
			<path class="st4" d="M119.84,398.6c16.19,45.41,61.04,77.25,112.84,77.25c50.84,0,94.18-31.38,111.07-75.46
				c1.85-4.84-1.81-10.01-7.07-10.01l-76.64,0v29.9c0,10.05-12.18,15.3-19.72,8.5l-65.84-59.31c-6-5.4-6-14.68,0-20.09L119.84,398.6
				z"/>
			<linearGradient id="SVGID_6_" gradientUnits="userSpaceOnUse" x1="256.5848" y1="450.2982" x2="311.261" y2="391.7165">
				<stop  offset="0" style="stop-color:#2F3234;stop-opacity:0.65"/>
				<stop  offset="1" style="stop-color:#FFFFFF;stop-opacity:0"/>
			</linearGradient>
			<path class="st5" d="M336.68,390.37l-76.64,0v29.9c0,10.05-12.18,15.3-19.72,8.5L281.63,466c28.71-12.67,50.98-36.54,62.12-65.62
				C345.61,395.55,341.95,390.37,336.68,390.37z"/>
		</g>
	</g>
</g>
</svg>
