<?xml version="1.0" standalone="no"?>
<!DOCTYPE svg PUBLIC "-//W3C//DTD SVG 20010904//EN"
 "http://www.w3.org/TR/2001/REC-SVG-20010904/DTD/svg10.dtd">
<svg version="1.0" xmlns="http://www.w3.org/2000/svg"
 width="1280.000000pt" height="1280.000000pt" viewBox="0 0 1280.000000 1280.000000"
 preserveAspectRatio="xMidYMid meet">
<metadata>
Created by potrace 1.15, written by Peter Selinger 2001-2017
</metadata>
<g transform="translate(0.000000,1280.000000) scale(0.100000,-0.100000)"
fill="#000000" stroke="none">
<path d="M9492 9835 c-239 -52 -484 -193 -630 -363 -225 -263 -331 -619 -274
-927 23 -125 49 -200 116 -333 60 -120 102 -179 195 -275 134 -138 324 -246
529 -301 92 -24 94 -34 14 -56 -40 -10 -46 -9 -75 13 -39 29 -108 47 -181 47
-47 0 -61 -4 -88 -29 -29 -26 -31 -31 -21 -54 15 -32 13 -33 -61 -42 -66 -8
-228 -53 -321 -89 -106 -42 -211 -56 -317 -45 -51 5 -100 12 -108 16 -8 3
-123 8 -255 12 -232 6 -242 7 -285 31 -26 15 -57 44 -75 71 -74 113 -126 155
-235 190 -30 9 -86 29 -125 43 -81 29 -141 33 -174 10 -17 -12 -21 -22 -16
-41 5 -20 3 -24 -12 -20 -163 45 -235 45 -307 3 -58 -34 -90 -79 -115 -160
-32 -103 -28 -172 13 -254 85 -169 228 -225 576 -226 115 -1 214 4 261 13 95
17 248 2 371 -35 172 -53 266 -75 417 -99 234 -38 223 -34 235 -77 18 -64 93
-156 145 -179 40 -18 59 -20 136 -15 50 3 124 14 165 26 41 11 82 20 91 20 20
0 35 -76 43 -216 6 -91 41 -287 78 -424 45 -173 191 -467 293 -595 51 -64 51
-64 3 -85 -93 -41 -179 -159 -387 -536 -103 -186 -138 -332 -112 -467 13 -71
81 -234 124 -296 56 -84 195 -255 246 -306 28 -27 51 -52 51 -56 0 -10 -70 6
-155 36 -66 24 -96 29 -176 30 l-96 0 -78 -60 c-70 -54 -80 -66 -101 -122 -18
-50 -21 -71 -15 -115 10 -69 31 -116 69 -152 l30 -28 389 11 c399 12 784 27
910 37 67 5 72 7 84 35 6 17 11 57 11 90 -1 51 -9 76 -65 192 -93 194 -138
266 -226 361 -55 60 -92 111 -126 178 -26 51 -72 135 -102 186 -58 99 -60 115
-19 161 11 13 39 35 61 49 55 34 212 173 315 276 46 47 90 86 96 86 30 0 229
-251 362 -455 143 -221 293 -348 518 -439 34 -14 122 -57 196 -96 128 -66 223
-108 382 -166 145 -54 187 -106 202 -249 15 -148 41 -214 124 -308 61 -69 100
-86 217 -93 92 -6 101 -5 148 19 28 14 71 47 97 74 42 43 49 57 68 136 18 75
19 96 10 150 -14 74 -43 160 -112 319 l-51 119 27 87 c30 100 32 136 11 258
-17 98 -27 134 -57 211 -17 44 -27 56 -64 74 -60 28 -109 34 -190 20 -73 -13
-142 -44 -162 -72 -25 -36 -77 -24 -207 46 -66 35 -176 93 -245 128 -104 54
-130 72 -157 110 -37 51 -67 116 -78 167 -3 19 -66 154 -138 299 l-131 264 -1
191 c-1 187 -2 193 -31 273 -34 92 -82 176 -135 237 -79 91 -256 324 -274 361
-38 78 -17 182 54 260 71 77 112 164 148 307 l34 140 -15 74 c-13 60 -25 86
-63 138 -46 62 -51 65 -143 100 -87 32 -100 35 -155 27 -33 -4 -84 -18 -114
-30 -32 -13 -65 -20 -78 -16 -25 6 -63 39 -63 55 0 5 33 26 74 46 148 72 325
244 426 413 98 165 169 419 170 607 0 150 -50 348 -123 484 -131 245 -372 453
-627 542 -156 55 -439 75 -588 43z"/>
<path d="M5355 9305 c-348 -64 -644 -300 -777 -620 -48 -117 -70 -219 -75
-355 -13 -318 92 -577 324 -801 89 -86 139 -122 238 -171 239 -119 500 -146
755 -77 169 46 377 171 491 297 124 137 220 323 255 492 23 113 15 352 -14
462 -79 293 -275 539 -537 671 -208 105 -446 142 -660 102z"/>
<path d="M2520 9019 c-185 -16 -356 -80 -500 -188 -69 -52 -185 -175 -237
-251 -188 -277 -215 -624 -74 -941 63 -141 106 -204 211 -309 l85 -85 -105
-52 c-83 -41 -127 -71 -210 -146 -201 -179 -375 -391 -453 -550 -24 -51 -94
-193 -155 -317 -128 -263 -159 -337 -180 -441 -14 -67 -14 -90 -4 -165 7 -48
18 -96 23 -106 6 -11 17 -49 24 -86 13 -58 13 -73 0 -112 -21 -68 -46 -324
-50 -512 -3 -190 -9 -208 -72 -228 -21 -7 -84 -36 -139 -66 -101 -53 -103 -54
-260 -74 -189 -24 -223 -32 -289 -72 -79 -47 -89 -67 -93 -178 -3 -77 2 -118
23 -210 15 -63 35 -158 44 -211 11 -65 25 -108 41 -133 24 -36 215 -196 295
-247 79 -51 168 -75 260 -70 48 2 148 114 170 188 30 101 -2 195 -82 247 -24
15 -33 29 -33 48 0 62 44 103 140 128 66 17 354 155 430 205 123 82 196 210
259 459 38 149 94 320 112 340 7 8 315 -128 394 -174 17 -10 53 -25 82 -34 32
-11 62 -29 78 -47 23 -28 25 -38 25 -132 0 -56 5 -133 10 -171 10 -68 10 -72
-39 -221 -84 -256 -86 -335 -8 -398 l37 -31 333 -7 c323 -8 417 -4 567 22 93
17 138 40 197 100 52 55 73 109 73 191 0 53 -58 143 -119 185 -49 34 -59 37
-125 37 -53 0 -81 -5 -111 -21 -55 -29 -166 -41 -184 -19 -23 28 -23 89 -1
268 18 151 20 190 11 272 -6 53 -17 113 -24 135 -27 76 -87 169 -145 222 -70
65 -449 354 -486 370 -14 7 -26 15 -26 18 0 4 16 45 35 91 46 108 93 296 108
425 12 98 13 100 39 103 15 2 84 -11 154 -27 157 -39 218 -39 375 -2 68 16
157 35 197 41 84 14 238 85 263 122 24 34 49 113 49 152 l0 33 60 7 c64 7 109
4 225 -19 62 -12 279 -28 390 -29 91 -1 231 108 287 222 31 63 33 73 33 177 0
68 -5 122 -13 141 -19 45 -65 75 -126 81 -45 5 -56 2 -81 -19 -44 -37 -147
-108 -157 -108 -21 0 -1 27 76 103 46 45 87 91 90 103 8 25 -34 74 -63 74 -21
0 -93 -51 -151 -106 -19 -18 -63 -52 -96 -76 -87 -61 -151 -123 -183 -176 -17
-30 -36 -48 -54 -53 -27 -7 -43 -6 -242 25 -55 9 -118 16 -140 16 -22 0 -49 7
-59 15 -27 21 -53 18 -111 -10 -28 -14 -68 -25 -90 -25 -56 0 -157 59 -254
147 -44 40 -110 91 -148 113 -37 22 -63 40 -58 40 369 19 656 164 834 420 153
220 219 497 177 735 -67 369 -327 671 -681 789 -64 22 -281 60 -304 55 -3 -1
-49 -5 -101 -10z m67 -2588 c-10 -29 -12 -29 -39 -15 -31 16 -32 21 -18 59
l10 26 29 -20 c27 -19 28 -24 18 -50z"/>
</g>
</svg>
