<?xml version="1.0" encoding="iso-8859-1"?>
<!-- Generator: Adobe Illustrator 22.0.1, SVG Export Plug-In . SVG Version: 6.00 Build 0)  -->
<svg version="1.1" id="Layer_1_1_" xmlns="http://www.w3.org/2000/svg" xmlns:xlink="http://www.w3.org/1999/xlink" x="0px" y="0px"
	 viewBox="0 0 64 64" style="enable-background:new 0 0 64 64;" xml:space="preserve">
<g id="Guide">
</g>
<path d="M61,34H51v-3h-2v3H39c-0.552,0-1,0.448-1,1v26c0,0.552,0.448,1,1,1h16c0.131,0,0.26-0.026,0.381-0.076
	s0.232-0.123,0.326-0.217l6-6c0.086-0.086,0.147-0.187,0.196-0.293c0.014-0.031,0.023-0.062,0.034-0.094
	c0.029-0.084,0.046-0.169,0.051-0.257C61.989,55.041,62,55.022,62,55V35C62,34.448,61.552,34,61,34z M40,36h20v18h-5
	c-0.552,0-1,0.448-1,1v5H40V36z M56,58.586V56h2.586L56,58.586z"/>
<path d="M3,23h1v5c0,0.286,0.122,0.558,0.335,0.748L13,36.45V45c0,0.347,0.18,0.668,0.474,0.851C13.635,45.95,13.817,46,14,46
	c0.153,0,0.306-0.035,0.447-0.105l4-2C18.786,43.725,19,43.379,19,43v-6.551l8.665-7.702C27.878,28.558,28,28.286,28,28v-5h1
	c0.552,0,1-0.448,1-1v-4c0-0.552-0.448-1-1-1v-3h-2v3h-6v-2h-2v2h-6v-4h-2v4H5v-2H3v2c-0.552,0-1,0.448-1,1v4
	C2,22.552,2.448,23,3,23z M28,21h-1c-0.552,0-1,0.448-1,1v5.551l-8.665,7.702C17.122,35.442,17,35.714,17,36v6.382l-2,1V36
	c0-0.286-0.122-0.558-0.335-0.748L6,27.551V22c0-0.552-0.448-1-1-1H4v-2h24V21z"/>
<rect x="15" y="13" width="2" height="2"/>
<rect x="15" y="6" width="2" height="5"/>
<rect x="15" y="2" width="2" height="2"/>
<rect x="19" y="11" width="2" height="2"/>
<rect x="19" y="2" width="2" height="7"/>
<rect x="3" y="11" width="2" height="2"/>
<rect x="3" y="2" width="2" height="3"/>
<rect x="23" y="10" width="2" height="5"/>
<rect x="23" y="6" width="2" height="2"/>
<rect x="23" y="2" width="2" height="2"/>
<rect x="7" y="2" width="2" height="3"/>
<rect x="7" y="7" width="2" height="2"/>
<rect x="7" y="11" width="2" height="4"/>
<rect x="11" y="2" width="2" height="5"/>
<rect x="11" y="9" width="2" height="2"/>
<rect x="3" y="7" width="2" height="2"/>
<rect x="27" y="2" width="2" height="10"/>
<path d="M12.02,30.804l1.961,0.393L14.42,29h1.961l-0.361,1.804l1.961,0.393L18.42,29H20v-2h-1.18l0.4-2H21v-2h-1.38l0.361-1.804
	l-1.961-0.393L17.58,23h-1.961l0.361-1.804l-1.961-0.393L13.58,23H12v2h1.18l-0.4,2H11v2h1.38L12.02,30.804z M15.22,25h1.961l-0.4,2
	H14.82L15.22,25z"/>
<path d="M51,20.5c0-5.238-4.262-9.5-9.5-9.5S32,15.262,32,20.5v32c0,4.136-3.364,7.5-7.5,7.5S17,56.636,17,52.5V51h-2v1.5
	c0,5.238,4.262,9.5,9.5,9.5s9.5-4.262,9.5-9.5v-32c0-4.136,3.364-7.5,7.5-7.5s7.5,3.364,7.5,7.5V21h2V20.5z"/>
<rect x="15" y="47" width="2" height="2"/>
<rect x="49" y="23" width="2" height="2"/>
<rect x="49" y="27" width="2" height="2"/>
<rect x="43" y="39" width="14" height="2"/>
<rect x="43" y="43" width="14" height="2"/>
<rect x="43" y="47" width="14" height="2"/>
<rect x="43" y="51" width="9" height="2"/>
<rect x="43" y="55" width="9" height="2"/>
</svg>
