<?xml version="1.0" standalone="no"?>
<!DOCTYPE svg PUBLIC "-//W3C//DTD SVG 20010904//EN"
 "http://www.w3.org/TR/2001/REC-SVG-20010904/DTD/svg10.dtd">
<svg version="1.0" xmlns="http://www.w3.org/2000/svg"
 width="1013.000000pt" height="1280.000000pt" viewBox="0 0 1013.000000 1280.000000"
 preserveAspectRatio="xMidYMid meet">
<metadata>
Created by potrace 1.15, written by Peter Selinger 2001-2017
</metadata>
<g transform="translate(0.000000,1280.000000) scale(0.100000,-0.100000)"
fill="#000000" stroke="none">
<path d="M4761 12790 c-167 -35 -263 -89 -525 -294 -245 -192 -329 -229 -521
-229 -168 0 -337 34 -593 120 -222 73 -584 230 -811 349 -57 30 -105 53 -106
52 -6 -8 1938 -2443 1948 -2440 32 9 87 2 132 -18 28 -11 127 -72 220 -135
261 -174 384 -221 560 -212 77 3 116 11 170 32 39 15 89 34 113 43 23 9 42 22
42 29 0 6 -38 26 -85 44 -243 91 -403 246 -435 421 -13 68 1 168 31 234 33 69
117 140 196 164 83 25 128 25 206 -1 164 -55 340 -176 531 -363 64 -64 119
-116 121 -116 2 0 40 51 85 114 157 220 255 317 386 382 39 20 95 41 125 47
l54 12 688 865 c643 809 722 911 700 897 -13 -8 -218 -104 -328 -154 -169 -76
-412 -172 -580 -228 -290 -97 -473 -135 -650 -135 -228 0 -373 47 -798 257
-343 170 -442 213 -562 245 -89 23 -246 32 -314 18z"/>
<path d="M6550 10891 c-148 -46 -340 -243 -510 -523 -29 -49 -55 -88 -58 -88
-3 0 -80 73 -171 163 -247 242 -426 366 -568 396 -114 23 -209 -31 -254 -144
-6 -16 -11 -60 -12 -97 0 -53 6 -78 27 -122 65 -132 256 -248 541 -329 66 -19
134 -38 152 -43 30 -8 15 -16 -248 -127 -247 -105 -289 -119 -353 -124 -193
-15 -478 101 -755 307 -100 74 -132 84 -170 53 -11 -10 -24 -32 -27 -49 -9
-46 34 -88 195 -196 158 -106 358 -206 486 -243 110 -32 257 -43 346 -26 34 7
173 59 308 116 135 58 246 103 248 102 1 -2 -18 -88 -42 -192 -64 -278 -131
-614 -149 -743 -10 -66 -16 -183 -16 -282 l0 -170 80 0 80 0 0 161 c0 229 35
441 166 1015 l67 292 32 15 c30 14 34 14 52 -5 20 -19 20 -19 33 12 7 17 21
35 30 40 16 8 31 -12 113 -143 190 -304 326 -564 377 -717 28 -82 30 -98 30
-244 l0 -156 80 0 80 0 0 170 c0 161 -2 175 -30 262 -51 161 -206 458 -402
771 -44 71 -78 130 -76 131 1 2 73 26 158 54 206 68 408 119 506 128 109 9
157 31 185 85 42 83 4 197 -103 314 -128 140 -307 213 -428 176z m181 -181
c75 -39 199 -173 199 -216 0 -7 -34 -16 -90 -23 -119 -15 -287 -59 -488 -126
-89 -30 -164 -55 -167 -55 -9 0 55 97 113 173 98 128 215 242 272 266 35 15
111 6 161 -19z m-1454 -50 c55 -24 151 -90 243 -166 87 -73 249 -234 235 -234
-23 0 -177 41 -255 68 -115 40 -170 65 -232 105 -108 69 -150 135 -128 202 19
58 47 63 137 25z"/>
<path d="M3835 9897 c-1249 -641 -2196 -1294 -2639 -1821 -360 -429 -693
-1302 -976 -2555 -23 -102 -59 -245 -80 -318 -152 -519 -179 -1081 -80 -1630
150 -827 624 -1634 1316 -2242 862 -757 1961 -1206 3214 -1313 201 -17 749
-17 950 0 1322 113 2497 618 3353 1441 1049 1010 1463 2372 1117 3676 -16 61
-52 229 -80 375 -65 337 -142 670 -226 975 -206 751 -436 1274 -710 1614 -316
392 -955 873 -1824 1373 -180 103 -593 328 -604 328 -3 0 4 -17 17 -37 54 -86
138 -255 180 -363 62 -155 89 -293 89 -440 -1 -147 -16 -207 -60 -237 -76 -51
-196 -38 -269 29 -51 48 -54 62 -57 240 -2 116 -6 144 -30 218 -35 105 -102
240 -208 417 -44 75 -89 156 -100 182 -29 65 -55 91 -94 91 -22 0 -34 -5 -38
-17 -19 -62 -138 -568 -156 -658 -34 -178 -50 -350 -49 -511 1 -120 -2 -157
-15 -181 -37 -73 -127 -108 -250 -100 -45 3 -88 8 -97 12 -13 5 -18 27 -24
100 -17 235 39 655 149 1110 14 55 24 101 23 101 -1 1 -63 -24 -138 -56 -160
-69 -232 -89 -344 -97 -261 -18 -521 85 -939 376 -32 23 -64 41 -70 41 -6 0
-119 -56 -251 -123z m1645 -2777 l0 -250 41 0 c77 0 253 -31 348 -62 99 -32
235 -90 244 -104 4 -7 -108 -371 -118 -382 -2 -2 -27 9 -55 23 -290 147 -633
179 -834 78 -72 -36 -151 -120 -189 -200 -29 -63 -32 -76 -32 -168 1 -89 4
-106 30 -160 64 -133 215 -244 564 -416 268 -132 394 -213 511 -328 169 -168
240 -348 240 -612 0 -159 -28 -283 -93 -414 -71 -144 -204 -286 -339 -363 -81
-46 -236 -105 -305 -117 l-43 -7 0 -274 0 -274 -180 0 -180 0 -2 257 -3 257
-105 12 c-136 15 -253 39 -365 75 -100 32 -281 119 -279 134 2 13 116 379 120
384 2 2 54 -22 116 -53 210 -103 381 -146 588 -146 257 0 416 84 507 268 34
69 37 81 41 185 4 96 1 121 -18 176 -56 166 -202 298 -467 423 -226 105 -311
149 -402 209 -198 128 -310 241 -376 380 -56 119 -70 186 -70 339 0 170 19
257 88 393 43 88 64 115 146 198 128 127 234 188 422 243 l84 24 3 261 2 261
180 0 180 0 0 -250z"/>
</g>
</svg>
