<?xml version="1.0" standalone="no"?>
<!DOCTYPE svg PUBLIC "-//W3C//DTD SVG 20010904//EN"
 "http://www.w3.org/TR/2001/REC-SVG-20010904/DTD/svg10.dtd">
<svg version="1.0" xmlns="http://www.w3.org/2000/svg"
 width="1234.000000pt" height="1280.000000pt" viewBox="0 0 1234.000000 1280.000000"
 preserveAspectRatio="xMidYMid meet">
<metadata>
Created by potrace 1.15, written by Peter Selinger 2001-2017
</metadata>
<g transform="translate(0.000000,1280.000000) scale(0.100000,-0.100000)"
fill="#000000" stroke="none">
<path d="M9449 11927 c-665 -767 -2204 -2539 -7109 -8184 l-1297 -1492 -193
-503 c-106 -277 -271 -701 -368 -943 -175 -442 -225 -575 -218 -582 9 -9 210
101 551 302 105 61 448 257 763 433 380 214 582 333 601 354 90 104 4689 5390
6710 7713 1311 1507 2394 2751 2406 2765 l22 25 -32 145 c-18 80 -40 180 -50
222 l-17 77 -290 253 -290 253 -142 12 c-77 6 -175 14 -216 17 l-75 5 -756
-872z"/>
<path d="M11515 2585 c-64 -11 -1405 -258 -2450 -451 -104 -19 -334 -62 -510
-94 -464 -86 -934 -173 -1300 -240 -358 -66 -725 -134 -2225 -410 -3117 -574
-3285 -605 -3379 -631 -100 -28 -653 -239 -837 -320 -196 -86 -239 -151 -117
-180 75 -17 324 -20 763 -10 301 7 471 16 525 25 151 28 1071 197 2015 371
520 96 1388 256 1930 355 542 99 1071 197 1175 216 105 19 359 66 565 104 206
38 632 116 945 174 535 99 1661 306 2535 466 714 131 722 133 802 210 80 78
86 174 17 281 -79 124 -241 172 -454 134z"/>
</g>
</svg>
