<?xml version="1.0" standalone="no"?>
<!DOCTYPE svg PUBLIC "-//W3C//DTD SVG 20010904//EN"
 "http://www.w3.org/TR/2001/REC-SVG-20010904/DTD/svg10.dtd">
<svg version="1.0" xmlns="http://www.w3.org/2000/svg"
 width="1182.000000pt" height="1280.000000pt" viewBox="0 0 1182.000000 1280.000000"
 preserveAspectRatio="xMidYMid meet">
<metadata>
Created by potrace 1.15, written by Peter Selinger 2001-2017
</metadata>
<g transform="translate(0.000000,1280.000000) scale(0.100000,-0.100000)"
fill="#000000" stroke="none">
<path d="M1445 12787 c-22 -8 -54 -21 -71 -30 -43 -22 -155 -144 -256 -279
-552 -732 -929 -1702 -1062 -2728 -39 -299 -50 -493 -50 -870 -1 -421 14 -639
70 -1015 138 -942 502 -1856 1017 -2555 103 -140 212 -264 258 -295 165 -109
380 -53 466 123 24 48 28 69 27 137 0 99 -22 146 -121 261 -186 216 -406 566
-560 891 -68 144 -56 111 -223 609 -76 227 -150 463 -164 525 -106 474 -154
1021 -135 1536 13 365 45 644 114 995 31 155 59 251 186 633 131 392 162 474
240 635 148 305 315 578 474 774 146 181 164 207 180 258 42 144 -20 293 -153
366 -74 40 -168 52 -237 29z"/>
<path d="M10215 12791 c-175 -46 -280 -225 -231 -393 16 -57 32 -80 181 -264
159 -196 326 -469 474 -774 78 -161 109 -243 240 -635 162 -487 193 -612 246
-988 87 -626 77 -1297 -31 -1917 -45 -261 -74 -367 -214 -784 -167 -498 -155
-465 -223 -609 -154 -326 -375 -676 -561 -892 -94 -109 -121 -168 -120 -265 1
-171 120 -297 291 -308 128 -8 199 29 316 167 351 411 678 1009 889 1626 178
517 274 986 330 1605 19 220 16 848 -5 1085 -79 858 -283 1597 -628 2275 -250
493 -589 969 -743 1045 -56 27 -158 40 -211 26z"/>
<path d="M2971 11590 c-62 -13 -120 -51 -183 -119 -71 -76 -179 -221 -255
-341 -770 -1219 -828 -2960 -141 -4260 119 -225 298 -488 412 -604 77 -79 131
-101 241 -101 99 1 127 11 202 72 47 37 98 132 108 200 15 98 -20 177 -150
337 -290 358 -523 927 -609 1489 -70 454 -60 964 29 1396 108 530 323 1009
615 1367 92 114 115 167 114 264 -2 83 -27 143 -89 209 -72 77 -187 113 -294
91z"/>
<path d="M8700 11587 c-136 -38 -231 -159 -233 -297 -2 -97 21 -150 115 -265
342 -420 570 -989 660 -1645 31 -224 33 -755 5 -975 -85 -657 -315 -1240 -656
-1662 -103 -128 -124 -175 -124 -270 0 -261 299 -406 508 -247 73 56 234 269
357 474 619 1029 750 2434 338 3625 -63 182 -117 311 -204 485 -182 364 -422
694 -550 754 -64 30 -155 40 -216 23z"/>
<path d="M4324 10390 c-109 -22 -185 -88 -305 -265 -163 -240 -284 -563 -335
-900 -26 -166 -26 -531 -1 -695 57 -367 180 -683 367 -945 111 -154 189 -211
305 -222 229 -21 409 218 321 428 -8 19 -46 77 -85 129 -81 107 -177 294 -215
417 -118 381 -104 831 37 1178 53 131 103 220 188 334 103 138 122 238 70 356
-39 87 -134 167 -216 180 -78 12 -90 13 -131 5z"/>
<path d="M7355 10390 c-72 -11 -118 -33 -174 -85 -69 -65 -96 -129 -95 -230 0
-67 5 -89 27 -132 15 -29 40 -67 55 -85 116 -134 220 -356 270 -573 35 -154
45 -272 39 -473 -6 -205 -23 -307 -77 -476 -57 -178 -96 -249 -265 -489 -92
-129 -62 -316 67 -418 92 -73 214 -87 326 -39 116 50 290 291 407 565 297 696
227 1570 -174 2166 -100 150 -151 203 -224 238 -71 34 -111 40 -182 31z"/>
<path d="M5806 9930 c-441 -55 -788 -375 -878 -810 -29 -137 -21 -347 16 -475
121 -409 457 -690 880 -736 186 -21 375 14 551 101 267 131 456 364 537 660
20 73 23 109 23 250 0 141 -3 177 -23 250 -89 325 -318 582 -626 700 -139 54
-334 78 -480 60z"/>
<path d="M5735 7174 c-240 -52 -442 -237 -590 -540 -66 -134 -118 -279 -186
-518 -33 -116 -99 -339 -146 -496 -80 -271 -132 -445 -293 -985 -175 -587
-214 -718 -294 -985 -46 -157 -173 -582 -281 -945 -108 -363 -234 -786 -280
-940 -273 -914 -335 -1125 -335 -1136 0 -26 82 -119 146 -167 309 -231 908
-378 1804 -444 225 -16 979 -16 1205 0 993 73 1625 248 1878 521 43 47 57 69
57 92 0 17 -318 1102 -706 2412 -388 1310 -719 2425 -734 2477 -15 52 -51 174
-80 270 -29 96 -70 235 -91 309 -139 472 -263 719 -448 893 -136 129 -271 187
-450 194 -72 2 -128 -1 -176 -12z"/>
</g>
</svg>
